#N canvas 384 23 1265 831 10;
#X obj 17 280 wrap~;
#X obj 186 573 +~;
#X obj 186 546 *~;
#X obj 39 116 inlet~;
#X obj 252 413 sig~;
#X obj 350 417 sig~;
#X obj 317 701 hsl 128 15 0 1 0 0 empty empty empty -2 -8 0 10 -262144
-1 -1 0 1;
#X obj 383 959 *~;
#X obj 440 951 *~;
#X obj 665 823 line~;
#X obj 382 936 *~;
#X obj 442 931 *~;
#X obj 314 724 * 220.5;
#X obj 312 777 +~;
#X obj 311 808 expr~ 220.5-$v1;
#X obj 210 94 float \$1;
#X obj 209 68 loadbang;
#X floatatom 210 116 5 0 0 0 - - -;
#X floatatom 273 166 5 0 0 0 - - -;
#X obj 361 -18 t b f;
#X obj 187 599 abs~;
#X floatatom 446 675 5 0 0 0 - - -;
#X obj 313 747 sig~;
#X obj 453 733 *;
#X obj 446 653 - 100;
#X obj 444 625 random 200;
#X obj 457 331 tgl 15 0 empty empty empty 17 7 0 10 -262144 -1 -1 0
1;
#X obj 178 518 *~;
#X obj 639 236 hsl 128 15 -1 1 0 0 empty empty empty -2 -8 0 10 -262144
-1 -1 0 1;
#X obj 608 82 random 1000;
#X floatatom 609 152 5 0 0 0 - - -;
#X obj 598 460 sig~;
#X obj 610 109 / 1000;
#X obj 609 130 - 0.5;
#X floatatom 626 193 5 0 0 0 - - -;
#X obj 609 214 *;
#X obj 597 285 +;
#X obj 612 256 t b f;
#X obj 601 434 *;
#X obj 836 236 hsl 128 15 -1 1 0 0 empty empty empty -2 -8 0 10 -262144
-1 -1 0 1;
#X obj 803 84 random 1000;
#X floatatom 804 154 5 0 0 0 - - -;
#X obj 805 111 / 1000;
#X obj 804 132 - 0.5;
#X floatatom 821 195 5 0 0 0 - - -;
#X obj 804 216 *;
#X obj 842 353 +;
#X obj 807 258 t b f;
#X obj 870 417 * 1;
#X msg 888 362 1;
#X msg 926 364 -1;
#X obj 888 394 t b f;
#X obj 888 340 sel 0 1;
#X floatatom 27 497 5 0 0 0 - - -;
#X obj 160 81 bng 15 250 50 0 empty empty empty 17 7 0 10 -262144 -1
-1;
#X obj 453 404 s;
#X obj 450 364 spigot;
#X obj 436 1007 *~;
#X obj 639 1006 *~;
#X obj 665 969 line~;
#X obj 664 914 tgl 15 0 empty on_off empty 17 7 0 10 -262144 -1 -1
0 1;
#X obj 597 304 abs;
#X obj 28 427 * 8000;
#X obj 28 451 expr 8000-$f1;
#X obj 28 475 + 441;
#X obj 105 821 *~;
#X obj 496 350 loadbang;
#X obj 151 822 *~;
#X obj 169 790 *~;
#X obj 194 709 sel 1 2;
#X msg 192 739 1;
#X msg 227 739 0;
#X obj 591 333 clip 0 1;
#X obj 634 413 -;
#X obj 714 374 t b f;
#X floatatom 387 72 5 0 0 0 - - -;
#X obj 381 100 > \$1;
#X obj 365 6 *;
#X floatatom 281 115 5 0 0 0 - - -;
#X obj 281 92 expr 1 / $f1;
#X obj 276 143 *;
#X obj 19 254 +~;
#X obj 133 223 sig~;
#X obj 976 234 * 4;
#X obj 13 569 *~;
#X msg 27 518 \$1 20;
#X obj 27 540 line~;
#X obj 494 1017 r singlegrainvolume;
#X obj 131 659 tabread4~ poly_grain-R;
#X obj 103 627 tabread4~ poly_grain-L;
#X obj 12 592 tabread~ crown;
#X obj 310 846 tabread~ hann;
#X obj 441 846 tabread~ hann;
#X obj 193 688 r num_channels;
#X obj 891 321 r reverse;
#X obj 823 174 r random_pitch;
#X obj 626 169 r offset_random;
#X obj 1011 173 r pitch_range;
#X obj 594 -38 r sample_offset;
#X obj 354 -55 r numgrains;
#X obj 406 -18 r grains_playing;
#X obj 250 378 r grainsize;
#X obj 28 403 r grain_env;
#X obj 314 664 r global_pan;
#X obj 467 702 r random_panning;
#X obj 438 1095 throw~ grainoutL;
#X obj 632 1092 throw~ grainoutR;
#X obj 620 370 r samplelength;
#X obj 664 882 inlet;
#X obj 437 1047 *~ 0.8;
#X obj 637 1036 *~ 0.8;
#X obj 1000 196 t b f;
#X obj 499 378 symbol \$1-loc;
#X obj 74 303 threshold~ 0.1 10 0.1 10;
#X obj 262 480 samphold~;
#X obj 216 544 samphold~;
#X obj 205 458 samphold~;
#X obj 366 25 change;
#X obj 708 345 r grainsize;
#X text 698 916 envelope for master on/off;
#X text 685 776 envelope for grains switching on/off;
#X obj 870 444 s \$0-grain_pitch;
#X obj 343 388 r \$0-grain_pitch;
#X obj 384 131 s \$0-thisGrain_on;
#X obj 460 295 r \$0-thisGrain_on;
#X obj 664 775 tgl 15 0 empty empty empty 17 7 0 10 -262144 -1 -1 0
1;
#X obj 664 751 r \$0-thisGrain_on;
#N canvas 0 23 1088 686 simple_env 0;
#X obj 279 105 sel 1 0;
#X obj 229 177 * 2000;
#X obj 309 170 * 5000;
#X obj 214 219 f;
#X obj 285 219 f;
#X msg 168 269 1 \$1;
#X msg 290 264 0 \$1;
#X obj 229 136 r attack;
#X obj 318 136 r release;
#X obj 280 385 outlet;
#X obj 283 60 inlet;
#X connect 0 0 3 0;
#X connect 0 1 4 0;
#X connect 1 0 3 1;
#X connect 2 0 4 1;
#X connect 3 0 5 0;
#X connect 4 0 6 0;
#X connect 5 0 9 0;
#X connect 6 0 9 0;
#X connect 7 0 1 0;
#X connect 8 0 2 0;
#X connect 10 0 0 0;
#X restore 664 798 pd simple_env;
#N canvas 0 23 1088 686 simple_env 0;
#X obj 279 105 sel 1 0;
#X obj 229 177 * 2000;
#X obj 309 170 * 5000;
#X obj 214 219 f;
#X obj 285 219 f;
#X msg 168 269 1 \$1;
#X msg 290 264 0 \$1;
#X obj 229 136 r attack;
#X obj 318 136 r release;
#X obj 280 385 outlet;
#X obj 283 60 inlet;
#X connect 0 0 3 0;
#X connect 0 1 4 0;
#X connect 1 0 3 1;
#X connect 2 0 4 1;
#X connect 3 0 5 0;
#X connect 4 0 6 0;
#X connect 5 0 9 0;
#X connect 6 0 9 0;
#X connect 7 0 1 0;
#X connect 8 0 2 0;
#X connect 10 0 0 0;
#X restore 664 945 pd simple_env;
#X text 849 30 pitch controls;
#X text 621 29 location controls;
#X obj 376 48 + 0;
#X obj 224 191 f;
#X obj 110 328 s \$0-phase_trigger;
#X obj 614 54 r \$0-phase_trigger;
#X obj 805 51 r \$0-phase_trigger;
#X obj 444 592 r \$0-phase_trigger;
#X obj 119 163 r \$0-phase_trigger;
#X obj 962 137 r grain_pitch;
#X connect 0 0 27 0;
#X connect 0 0 84 0;
#X connect 0 0 113 0;
#X connect 0 0 114 1;
#X connect 0 0 115 1;
#X connect 0 0 116 1;
#X connect 1 0 20 0;
#X connect 2 0 1 0;
#X connect 3 0 81 0;
#X connect 4 0 116 0;
#X connect 5 0 114 0;
#X connect 6 0 12 0;
#X connect 7 0 57 0;
#X connect 8 0 58 0;
#X connect 9 0 8 1;
#X connect 9 0 7 1;
#X connect 10 0 7 0;
#X connect 11 0 8 0;
#X connect 12 0 22 0;
#X connect 13 0 14 0;
#X connect 13 0 92 0;
#X connect 14 0 91 0;
#X connect 15 0 17 0;
#X connect 16 0 15 0;
#X connect 17 0 80 1;
#X connect 18 0 132 1;
#X connect 19 0 77 0;
#X connect 19 1 77 1;
#X connect 20 0 88 0;
#X connect 20 0 89 0;
#X connect 21 0 23 0;
#X connect 22 0 13 0;
#X connect 23 0 13 1;
#X connect 24 0 21 0;
#X connect 25 0 24 0;
#X connect 26 0 56 1;
#X connect 27 0 2 0;
#X connect 29 0 32 0;
#X connect 30 0 35 0;
#X connect 31 0 115 0;
#X connect 32 0 33 0;
#X connect 33 0 30 0;
#X connect 34 0 35 1;
#X connect 35 0 28 0;
#X connect 35 0 37 0;
#X connect 36 0 56 0;
#X connect 36 0 61 0;
#X connect 37 0 36 0;
#X connect 37 1 36 1;
#X connect 38 0 31 0;
#X connect 40 0 42 0;
#X connect 41 0 45 0;
#X connect 42 0 43 0;
#X connect 43 0 41 0;
#X connect 44 0 45 1;
#X connect 45 0 39 0;
#X connect 45 0 47 0;
#X connect 46 0 48 0;
#X connect 47 0 46 0;
#X connect 47 1 46 1;
#X connect 48 0 121 0;
#X connect 49 0 51 0;
#X connect 50 0 51 0;
#X connect 51 0 48 0;
#X connect 51 1 48 1;
#X connect 52 0 49 0;
#X connect 52 1 50 0;
#X connect 53 0 85 0;
#X connect 54 0 15 0;
#X connect 56 0 55 0;
#X connect 57 0 109 0;
#X connect 58 0 110 0;
#X connect 59 0 58 1;
#X connect 59 0 57 1;
#X connect 60 0 128 0;
#X connect 61 0 72 0;
#X connect 62 0 63 0;
#X connect 63 0 64 0;
#X connect 64 0 53 0;
#X connect 65 0 10 0;
#X connect 66 0 112 0;
#X connect 67 0 11 0;
#X connect 68 0 67 0;
#X connect 69 0 70 0;
#X connect 69 1 71 0;
#X connect 70 0 68 1;
#X connect 71 0 68 1;
#X connect 72 0 38 0;
#X connect 73 0 38 1;
#X connect 74 0 73 0;
#X connect 74 1 73 1;
#X connect 75 0 76 0;
#X connect 75 0 79 0;
#X connect 76 0 123 0;
#X connect 77 0 117 0;
#X connect 78 0 80 0;
#X connect 79 0 78 0;
#X connect 80 0 18 0;
#X connect 81 0 0 0;
#X connect 82 0 81 1;
#X connect 83 0 46 0;
#X connect 84 0 90 0;
#X connect 85 0 86 0;
#X connect 86 0 84 1;
#X connect 87 0 109 1;
#X connect 87 0 110 1;
#X connect 88 0 67 0;
#X connect 89 0 65 0;
#X connect 89 0 68 0;
#X connect 90 0 65 1;
#X connect 90 0 67 1;
#X connect 91 0 10 1;
#X connect 92 0 11 1;
#X connect 93 0 69 0;
#X connect 94 0 52 0;
#X connect 95 0 44 0;
#X connect 96 0 34 0;
#X connect 97 0 111 0;
#X connect 98 0 36 0;
#X connect 99 0 19 0;
#X connect 100 0 77 0;
#X connect 101 0 4 0;
#X connect 102 0 62 0;
#X connect 103 0 6 0;
#X connect 104 0 23 1;
#X connect 107 0 73 0;
#X connect 108 0 60 0;
#X connect 109 0 105 0;
#X connect 110 0 106 0;
#X connect 111 0 83 0;
#X connect 111 1 83 1;
#X connect 112 0 55 1;
#X connect 113 1 133 0;
#X connect 114 0 27 1;
#X connect 115 0 1 1;
#X connect 116 0 2 1;
#X connect 117 0 131 0;
#X connect 118 0 74 0;
#X connect 122 0 5 0;
#X connect 124 0 26 0;
#X connect 125 0 127 0;
#X connect 126 0 125 0;
#X connect 127 0 9 0;
#X connect 128 0 59 0;
#X connect 131 0 75 0;
#X connect 132 0 82 0;
#X connect 134 0 29 0;
#X connect 135 0 40 0;
#X connect 136 0 25 0;
#X connect 137 0 132 0;
#X connect 138 0 83 0;
